<svg width="42" height="37" viewBox="0 0 42 37" fill="none" xmlns="http://www.w3.org/2000/svg">
<path fill-rule="evenodd" clip-rule="evenodd" d="M1.74902 0C1.19674 0 0.749023 0.447715 0.749023 1C0.749023 1.55228 1.19674 2 1.74902 2H6.39768L8.90469 11.2613C9.0227 11.6973 9.41829 12 9.86994 12H39.5761L34.884 25H15.2839C14.3253 25 13.3915 25.351 12.6913 25.9976C11.9885 26.6467 11.5769 27.5449 11.5769 28.5C11.5769 29.4539 11.9874 30.351 12.6886 30.9999C12.0097 31.6239 11.5767 32.498 11.5767 33.5C11.5767 35.5064 13.3128 37 15.2837 37C17.2546 37 18.9907 35.5064 18.9907 33.5C18.9907 32.9557 18.8629 32.4492 18.6374 32H29.5255C29.3 32.4492 29.1722 32.9557 29.1722 33.5C29.1722 35.5064 30.9083 37 32.8792 37C34.8501 37 36.5862 35.5064 36.5862 33.5C36.5862 32.9557 36.4584 32.4492 36.2329 32H36.9397C37.492 32 37.9397 31.5523 37.9397 31C37.9397 30.4477 37.492 30 36.9397 30H32.8792H15.2839C14.8066 30 14.3634 29.8242 14.0482 29.5331C13.7358 29.2446 13.5769 28.871 13.5769 28.5C13.5769 28.129 13.7358 27.7554 14.0482 27.4669C14.3634 27.1758 14.8066 27 15.2839 27H35.5862C36.0076 27 36.3837 26.7359 36.5268 26.3395L41.9408 11.3395C42.0514 11.0331 42.0057 10.6919 41.8185 10.4253C41.6313 10.1587 41.3259 10 41.0001 10H10.6352L8.12823 0.738707C8.01022 0.302744 7.61462 0 7.16297 0H1.74902ZM32.8792 32C31.8601 32 31.1722 32.745 31.1722 33.5C31.1722 34.255 31.8601 35 32.8792 35C33.8983 35 34.5862 34.255 34.5862 33.5C34.5862 32.745 33.8983 32 32.8792 32ZM15.2837 32C14.2646 32 13.5767 32.745 13.5767 33.5C13.5767 34.255 14.2646 35 15.2837 35C16.3028 35 16.9907 34.255 16.9907 33.5C16.9907 32.745 16.3028 32 15.2837 32Z" fill="#202020"/>
</svg>
