<svg width="37" height="35" viewBox="0 0 37 35" fill="none" xmlns="http://www.w3.org/2000/svg">
<path fill-rule="evenodd" clip-rule="evenodd" d="M2.05859 13.7628C2.05859 7.82245 7.26457 2.88379 13.844 2.88379C20.4234 2.88379 25.6294 7.82245 25.6294 13.7628C25.6294 19.7031 20.4234 24.6418 13.844 24.6418C7.26457 24.6418 2.05859 19.7031 2.05859 13.7628ZM13.844 0.883789C6.30104 0.883789 0.0585938 6.58193 0.0585938 13.7628C0.0585938 20.9436 6.30104 26.6418 13.844 26.6418C17.273 26.6418 20.4332 25.4642 22.8604 23.5051L34.933 34.7218C35.3376 35.0977 35.9703 35.0744 36.3462 34.6698C36.7222 34.2652 36.6989 33.6325 36.2943 33.2566L24.3227 22.1337C26.3796 19.892 27.6294 16.9758 27.6294 13.7628C27.6294 6.58193 21.3869 0.883789 13.844 0.883789Z" fill="#202020"/>
</svg>
